<?xml version="1.0" encoding="utf-8"?>
<!-- Generator: Adobe Illustrator 18.1.1, SVG Export Plug-In . SVG Version: 6.00 Build 0)  -->
<!DOCTYPE svg PUBLIC "-//W3C//DTD SVG 1.1//EN" "http://www.w3.org/Graphics/SVG/1.1/DTD/svg11.dtd">
<svg version="1.1" id="Layer_1" xmlns="http://www.w3.org/2000/svg" xmlns:xlink="http://www.w3.org/1999/xlink" x="0px" y="0px"
	 viewBox="0 0 595.3 841.9" enable-background="new 0 0 595.3 841.9" xml:space="preserve">
<polygon fill="none" stroke="#010101" stroke-width="0.5" stroke-miterlimit="10" points="26.4,443.8 24.5,440.6 26.4,437.4 
	28.2,440.6 "/>
<polygon fill="none" stroke="#010101" stroke-width="0.5" stroke-miterlimit="10" points="54.9,390.2 52.3,386 54.9,381.7 57.3,386 
	"/>
<polygon fill="none" stroke="#010101" stroke-width="0.5" stroke-miterlimit="10" points="155.5,460.2 152.9,456 155.5,451.8 
	157.9,456 "/>
<polygon fill="none" stroke="#010101" stroke-width="0.5" stroke-miterlimit="10" points="566.3,430 570.8,437.4 566.3,444.7 
	562.1,437.4 "/>
<polygon fill="none" stroke="#010101" stroke-width="0.5" stroke-miterlimit="10" points="347.1,379.5 351,385.9 347.1,392.4 
	343.4,385.9 "/>
<polygon fill="none" stroke="#010101" stroke-width="0.5" stroke-miterlimit="10" points="57.1,414.8 61.1,421.2 57.1,427.7 
	53.5,421.2 "/>
<polygon fill="none" stroke="#010101" stroke-width="0.5" stroke-miterlimit="10" points="524.5,390.2 527.1,394.4 524.5,398.6 
	522.2,394.4 "/>
<polygon fill="none" stroke="#010101" stroke-width="0.5" stroke-miterlimit="10" points="401.1,455.1 402.7,457.6 401.1,460.2 
	399.7,457.6 "/>
<polygon fill="none" stroke="#010101" stroke-width="0.5" stroke-miterlimit="10" points="193.4,376.6 195,379.1 193.4,381.7 
	192,379.1 "/>
</svg>
